<?xml version="1.0" encoding="UTF-8"?>
<svg id="Calque_2" data-name="Calque 2" xmlns="http://www.w3.org/2000/svg" viewBox="0 0 260.27 63.09">
  <defs>
    <style>
      .cls-1 {
        fill: #fff;
        stroke-width: 0px;
      }
    </style>
  </defs>
  <g id="svg18">
    <path id="path18" class="cls-1" d="M218.3,8.55c-4.3,5.6-9.9,5.9-14.5,9.1,3.4.4,6.9.8,10.4,1.3,3.2.4,6.5.8,9.7,1.2,1.4.2,2.9.6,4.2,1.2,2.1.9,4.8,1.7,4.7,4.6-.1,2.7-2.8,3-4.8,3.8-1.6.7-3.3,1.3-6.1,2.3,2,.7,2.9,1.1,3.8,1.3,7.4,1.1,14.8,1.8,22.1,3.2,3.5.7,7,2.1,9.9,4,3.6,2.3,3.4,5.7-.5,7.7-3.7,1.8-7.8,3.1-11.8,3.7-7.7,1-15.5,1.4-23.3,1.8-15.6.8-31,3.6-46.4,6.2-21,3.7-42.2,3.7-63.5,2.2-19.7-1.3-39.2-5.1-59.1-5.3-11.4-.1-22.8-.7-34.2-1.9-5.5-.6-10.8-3-16.1-4.9-1.2-.4-2.9-2.1-2.8-2.8.3-1.3,1.6-2.9,2.9-3.4,8.2-3.2,16.7-4.8,25.5-4.5,2.3,0,4.8.3,7.1,0,4.1-.5,5.3-2.5,4.2-6.5-.4-1.6-1.2-3-1.7-4.6-.8-3-.2-5.2,2.7-6.3,2.9-1.2,6.2-1.9,9.4-2,3.8,0,7.6.7,11.4,1.1,4.7.4,8.5-.8,10.8-5.5,1-2.1,2.7-3.8,4.4-5.5,3-3.2,6.8-4.8,11.3-4.5,1.4.1,3,0,4.3.3,5.5,1.4,10.1.8,14.2-3.8,2.6-2.9,6.6-2.4,9.6-.5,5.6,3.5,11.4,3.8,17.8,3.4,15.8-1,31.5-2,47.3-2,9.6,0,19.1,1.8,28.6,3,2.6.3,5.1,1.5,8.4,2.5h0l.1.1Z"/>
  </g>
</svg>