<?xml version="1.0" encoding="UTF-8"?>
<svg id="Calque_2" data-name="Calque 2" xmlns="http://www.w3.org/2000/svg" viewBox="0 0 355.6 188.93">
  <defs>
    <style>
      .cls-1 {
        fill: #fff;
        stroke: #000;
        stroke-miterlimit: 10;
      }

      .cls-2 {
        fill: #000;
        font-family: ArialNarrow-BoldItalic, 'Arial Narrow';
        font-size: 30px;
        font-style: italic;
        font-weight: 700;
      }
    </style>
  </defs>
  <g id="Calque_6_Image" data-name="Calque 6 Image">
    <path class="cls-1" d="M270.99,61.96c.44,1.72,1.14,3.24,1.17,4.78.06,2.84.58,6.12-.59,8.47-4.25,8.45-2.07,16.22,1.36,24.08,1.16,2.65,2.58,5.34,2.97,8.13.38,2.75-.15,5.72-.76,8.49-.41,1.88-1.86,3.14-4.5,1.85,4.61-6.63,1.82-12.64-2.01-18.24-3.22-4.7-4.63-9.59-4.64-15.3-.02-6.51-.86-13.03-1.42-19.53-.09-1.04-.59-2.04-.94-3.21-8.25.43-16.36.78-24.45,1.3-7.78.5-15.54,1.22-23.32,1.75-1.23.08-2.55-.16-3.73-.54-5.97-1.97-12.1-2.01-18.29-1.82-4.87.15-9.75.03-15.22.03,0,2.49-.19,4.43.03,6.33.92,7.8-.44,15.22-3.68,22.29-3.02,6.59-4.28,13.52-4.04,20.67.33,9.84-2.36,19.08-5.49,28.17-2.65,7.69-10.05,11.75-17.3,10.53,2.57-2.21,6.39-4.06,7.9-7.07,3.56-7.08,6.15-14.67,8.81-22.16.62-1.74.25-3.98-.12-5.91-1.48-7.68-1.2-15.2,1.86-22.46,2.18-5.16,2.74-10.4,2.03-15.97-.57-4.44-.34-8.98-.48-14.02-2.36,0-4.31.13-6.24-.03-3.6-.29-7.18-.8-10.78-1.11-5.23-.45-10.47-1.04-15.72-1.14-6.88-.13-13.77.23-20.66.24-3.62,0-7.24-.37-10.87-.46-3.59-.09-4.54.72-4.91,4.23-.48,4.5-.78,9.03-1.28,13.53-.28,2.52-.45,5.14-1.29,7.49-2.3,6.44-2.79,13.1-3.03,19.83-.25,6.89-.54,13.77-.79,20.66-.04,1.09-.24,2.24.03,3.26,2.03,7.66-.59,14.73-2.63,21.87-.65,2.27-1.61,4.45-2.17,6.73-1.04,4.23-3.46,7.48-6.47,10.52-1.44,1.45-2.89,3.4-3.24,5.33-1.36,7.46-6.55,10.42-13.1,12.07-2.27.57-4.64.96-6.77,1.87-3.29,1.41-6.4,1.2-9.45-.37-3.87-2-7.74-4.02-11.46-6.29-5.81-3.53-8.68-9.07-9.93-15.56-.05-.24.34-.56.81-1.28.97,1.39,2.1,2.53,2.66,3.91,1.47,3.61,4.18,5.87,7.55,7.47,7.6,3.6,15.3,6.6,24.04,4.84,7.64-1.54,10.53-4.58,10.93-10.71.33-5.05,2.76-9.45,6.45-12.89,4.38-4.07,5.63-8.91,5.3-14.75-.58-10.32-1.03-20.68,1.73-30.87.7-2.58.91-5.43.71-8.1-1.18-15.51.04-30.76,4.62-45.78-3.63-1.71-7.02-3.31-10.7-5.04-.24-3.19-.27-6.64-.84-9.99-.42-2.43-1.07-5.08-2.47-7.02-4.25-5.9-3.24-12.08-1.45-18.27.91-3.16,3.42-4.84,6.75-5.61,5.28-1.23,10.45-2.89,15.69-4.29,2.09-.56,4.21-1.11,6.36-1.38,6.84-.86,13.69-1.76,20.56-2.27,2.79-.21,5.97-.11,8.41,1.04,4.8,2.27,9.67,2.87,14.82,2.67,7.21-.28,14.4-.7,21.65.14,3.24.37,6.74-1.05,10.06-1.9,5.61-1.43,11.13-3.22,16.77-4.51,1.84-.42,3.97.06,5.89.47,2.83.61,5.65,1.41,8.39,2.35,15.21,5.2,30.38,4.04,45.54-.16,6.4-1.77,12.84-2.09,19.42-1,3.93.65,7.94.8,11.92,1.19,7.58.74,12.11,4.37,13.89,11.69,1.81,7.44,1.77,14.88-2.62,21.53-2.5,3.79-3.38,7.33-1.58,11.73,1.31,3.2.31,4.98-3.59,6.78-6.06,2.8-12,6.17-19.04,6.01-.86-.02-1.72.4-3.02.72Z"/>
  </g>
  <g id="Calque_20_Image" data-name="Calque 20 Image">
    <path class="cls-1" d="M90.49,58.02c-2.73-.95-5.15-1.57-7.37-2.61-2.69-1.25-4.12-3.47-3.84-6.59.14-1.63.21-3.26.3-4.89.14-2.39-.22-4.42-1.82-6.55-3.1-4.12-3.86-8.91-1.86-13.88.88-2.19,1.84-4.35,2.8-6.5,2.73-6.08,7.6-8.6,14.06-8.05,3.06.26,6.11.83,9.12,1.5,5.99,1.35,11.85,1.49,17.63-.94,2-.84,4.13-1.4,6.16-2.2,11.5-4.51,23.32-5.29,35.32-2.78,12.75,2.67,25.31,1.43,37.79-1.39,9.63-2.17,19.01-2.17,28.33,1.49,7.37,2.89,14.86,2.18,22.5.7,8.52-1.65,17.14-3.13,25.79-3.7,10.34-.68,17.97,4.89,23.8,12.94,2.28,3.15,3.33,6.87,2.01,10.84-.8,2.4-1.51,4.85-2.48,7.18-1.37,3.26-2.09,6.52-1.29,10.05,2.53,11.15-3.43,15.43-12.32,17.1-4.42.83-8.91,1.33-13.62,2.01.24,1.39.28,2.47.61,3.46,1.21,3.63.93,7.11-.66,10.58-3.15,6.88-2.81,13.74.48,20.48,1.27,2.61,2.61,5.18,3.91,7.78,3.24,6.48.26,15.03-8.36,15.48,1.7-1.44,3.05-2.41,4.2-3.59,4.42-4.52,4.2-8.95-.57-13.05-.96-.83-2.01-1.56-2.99-2.36-6.19-5.07-7.87-10.77-5.34-18.38,1.67-5.03,3.13-10.06,2.22-15.46-.87-5.14-3.06-6.43-8.34-5.79-15.32,1.85-30.65,3.52-46.15,2.73-5.98-.31-11.99-.23-17.98-.28-4.68-.04-9.36,0-14.49,0,0,.49-.12,1.51.02,2.49,1.27,9.38.61,18.58-3.7,27.08-3.08,6.09-4.32,12.22-3.31,18.92,1.35,8.95-.66,17.28-4.66,25.29-2.72,5.46-6.72,9.41-12.38,11.65-3.14,1.24-6.32,2.36-9.48,3.53l-.48-1.03c.77-.68,1.5-1.41,2.32-2.04,11.15-8.49,15.37-20.25,15.77-33.74.06-1.93-.6-3.92-1.14-5.83-1.36-4.76-1.23-9.34,1.41-13.65,3.27-5.33,4.08-11.02,3.46-17.23-.52-5.18-.11-10.45-.11-16.18-.51,0-1.72-.21-2.83.03-6.2,1.36-12.25.87-18.23-1.16-6.88-2.34-13.71-2.44-20.89-.79-4.28.99-8.98.26-13.49.11-1.6-.05-3.16-.83-4.77-1.02-5.03-.6-7.47,1.1-8.15,6.14-1.02,7.54-2.24,15.1-2.48,22.67-.55,17.21-3.68,34.29-2.59,51.59.23,3.68-1.1,7.13-3.25,10.21-3.26,4.66-5.59,9.73-6.88,15.3-1.05,4.52-2.75,8.65-7.35,10.87-.9.44-1.44,1.59-2.23,2.33-1.95,1.85-3.64,4.33-5.97,5.36-10.16,4.48-25.25,5.59-33.2-5.32-2.77-3.8-5.29-7.79-7.79-11.77-.63-1-.73-2.32-1.08-3.5.6-.15,1.09-.38,1.18-.28,6.13,7.3,15.06,10.65,22.57,15.98,2.5,1.77,5.18,2.01,8.26,1.07,8.05-2.46,13.85-6.68,15.59-15.6.5-2.59,2.64-5.25,4.72-7.09,6.38-5.65,8.33-12.13,6.33-20.52-1.56-6.53-1.83-13.62.94-19.87,4.14-9.33,3.07-18.8,2.48-28.4-.39-6.34-.86-12.7-.66-19.03.09-2.94,1.61-5.87,2.63-8.74.4-1.12,1.22-2.09,1.89-3.19Z"/>
    <text class="cls-2" transform="translate(151.82 41.68)"><tspan x="0" y="0">Hike</tspan></text>
  </g>
</svg>