<?xml version="1.0" encoding="UTF-8" standalone="no"?>
<svg
   id="Calque_2"
   data-name="Calque 2"
   viewBox="0 0 355.6 97.26"
   version="1.1"
   sodipodi:docname="informations_generales_bulle.svg"
   inkscape:version="1.4.2 (ebf0e94, 2025-05-08)"
   xmlns:inkscape="http://www.inkscape.org/namespaces/inkscape"
   xmlns:sodipodi="http://sodipodi.sourceforge.net/DTD/sodipodi-0.dtd"
   xmlns="http://www.w3.org/2000/svg"
   xmlns:svg="http://www.w3.org/2000/svg">
  <sodipodi:namedview
     id="namedview3"
     pagecolor="#ffffff"
     bordercolor="#000000"
     borderopacity="0.25"
     inkscape:showpageshadow="2"
     inkscape:pageopacity="0.0"
     inkscape:pagecheckerboard="0"
     inkscape:deskcolor="#d1d1d1"
     inkscape:zoom="5.115298"
     inkscape:cx="177.8"
     inkscape:cy="48.57977"
     inkscape:window-width="1920"
     inkscape:window-height="1131"
     inkscape:window-x="0"
     inkscape:window-y="32"
     inkscape:window-maximized="1"
     inkscape:current-layer="Calque_2" />
  <defs
     id="defs1">
    <style
       id="style1">
      .cls-1 {
        fill: #fff;
        stroke: #000;
        stroke-miterlimit: 10;
      }

      .cls-2 {
        fill: #000;
        font-family: ArialNarrow-BoldItalic, 'Arial Narrow';
        font-size: 30px;
        font-style: italic;
        font-weight: 700;
      }
    </style>
  </defs>
  <g
     id="Calque_20_Image"
     data-name="Calque 20 Image">
    <path
       class="cls-1"
       d="M74.11,85.95c2.49-2.19,4.99-4.37,8.11-7.11-1.68-.24-2.68-.65-3.55-.47-4.97,1.01-9.91,2.18-14.86,3.25-1.14.25-2.31.36-4.07.62,2.33-4.54,7.34-6.41,8.11-11.57-3.89-1.57-7.54-.09-11.64.45,1.35-2.51,2.4-4.47,3.62-6.74-6.29-1.47-11.4-.41-15.91,3.19-3.12,2.49-5.95,5.35-9.12,7.76-1.82,1.39-3.99,2.95-6.14,3.18-5.92.63-11.92.63-17.89.82-2.45.08-4.91.01-7.53-.89,2.86-.59,5.71-1.23,8.58-1.78,9.4-1.8,16.28-6.72,19.87-15.81,2.1-5.32,5.83-8.55,11.67-9.36,4.92-.68,9.43-2.61,13.48-5.52,2.08-1.49,3.89-3.2,4.15-6.27-2.11-.12-4.03-.23-6.13-.36-1.07-5.57,3.54-8.03,6.3-12.08-1.76-.24-3.08-.36-4.38-.61-2.98-.58-4.31-2.49-2.8-5.05,1.42-2.41,3.67-4.38,5.77-6.31,1.55-1.42,3.18-2.28,3.99-4.74,1.73-5.27,10.23-10.15,15.75-10.06,2.65.05,3.62,1.18,2.93,3.85,5.52-1.14,10.95-2.28,16.4-3.37,1.24-.25,2.51-.37,3.77-.4,6.38-.14,7.24.66,7.62,7.34,1.55-.63,2.98-1.19,4.4-1.78,6.58-2.73,13.34-4.78,20.54-4.82,6.21-.04,7.26,1.23,6.36,7.94,1.66-.68,3.02-1.37,4.46-1.8,5.35-1.63,10.65-3.59,16.13-4.61,4.3-.8,4.99.12,6.56,3.95,5.58-1.59,11.06-3.36,16.65-4.67,2.41-.57,5.09-.55,7.55-.19,4.93.72,5.8,2.21,5.02,7.94,1.61-.8,2.98-1.42,4.3-2.14,6.54-3.54,13.58-5.03,20.95-4.97,6.18.06,7.45,1.12,8.84,6.66,5.47-1.74,10.86-3.91,16.46-5.09,4.19-.88,8.66-.74,13-.6,4.84.15,9.02,1.63,9.24,6.9,4.78-.94,9.32-2.06,13.93-2.67,2.5-.33,5.29.06,6.55,2.83,1.21,2.66-.12,4.97-1.72,7.02-1.54,1.98-3.25,3.83-5.35,6.28,2.27-.16,3.84-.47,5.39-.35,5.97.44,8.89,5.12,5.99,10.33-1.81,3.24-4.72,5.89-7.28,8.69-1.4,1.53-3.08,2.82-5.49,4.98,2.43.29,3.62.36,4.78.59,7.23,1.42,9.46,6.91,4.95,12.85-1.95,2.56-4.6,4.6-6.99,6.8-1.28,1.17-2.69,2.2-4.76,3.87,2.39.17,3.79.14,5.13.39,2.96.56,3.93,2.5,2.47,5.16-.68,1.23-1.64,2.52-2.81,3.24-6.34,3.93-12.82,7.6-20.42,8.54-.88.11-1.8.15-2.67.05-.5-.06-.95-.47-1.71-.88.34-1.14.68-2.28,1.21-4.07-6.94,1.23-13.59,2.4-20.24,3.57-.15-.29-.3-.57-.45-.86,1.89-1.75,3.78-3.5,6.56-6.08-13.45,1.68-24.95,6.34-38.1,9.99,1.92-3.59,3.24-6.06,5.14-9.61-3.24.16-5.37-.03-7.35.43-7.24,1.69-14.43,3.59-21.64,5.41-1.81.46-3.63.9-5.45,1.34-.16-.34-.31-.68-.47-1.03,1.03-1.38,2.07-2.76,3.04-4.05-.38-2.41-2.13-2.65-3.73-2.5-4.5.42-9.06.7-13.43,1.72-4.93,1.15-9.68,3.06-14.51,4.62-1.84.6-3.69,1.17-5.54,1.75-.23-.3-.47-.59-.7-.89,1.49-1.96,2.97-3.93,4.58-6.06-2.59-2.52-5.61-2.59-8.35-2.11-6.05,1.06-12.07,2.44-18.02,3.99-4.21,1.1-8.27,2.73-12.43,4.02-.91.29-1.95.17-3.77.3,1.8-2.67,3.13-4.66,5.06-7.52-13.76-2.21-25.41,3.49-37.45,6.28-.17-.37-.33-.73-.5-1.1Z"
       id="path2" />
    <text
       class="cls-2"
       transform="translate(103.31 38.02)"
       id="text3"><tspan
         x="0"
         y="0"
         id="tspan2">Informations</tspan><tspan
         x="17.05"
         y="30"
         id="tspan3">générales</tspan></text>
  </g>
</svg>
