<?xml version="1.0" encoding="UTF-8" standalone="no"?>
<svg
   id="Calque_2"
   data-name="Calque 2"
   viewBox="0 0 419.02 278.46"
   version="1.1"
   sodipodi:docname="inscription_bulle.svg"
   inkscape:version="1.4.2 (ebf0e94, 2025-05-08)"
   xmlns:inkscape="http://www.inkscape.org/namespaces/inkscape"
   xmlns:sodipodi="http://sodipodi.sourceforge.net/DTD/sodipodi-0.dtd"
   xmlns="http://www.w3.org/2000/svg"
   xmlns:svg="http://www.w3.org/2000/svg">
  <sodipodi:namedview
     id="namedview2"
     pagecolor="#ffffff"
     bordercolor="#000000"
     borderopacity="0.25"
     inkscape:showpageshadow="2"
     inkscape:pageopacity="0.0"
     inkscape:pagecheckerboard="0"
     inkscape:deskcolor="#d1d1d1"
     inkscape:zoom="3.1422827"
     inkscape:cx="209.56103"
     inkscape:cy="139.23"
     inkscape:window-width="1920"
     inkscape:window-height="1131"
     inkscape:window-x="0"
     inkscape:window-y="32"
     inkscape:window-maximized="1"
     inkscape:current-layer="Calque_2" />
  <defs
     id="defs1">
    <style
       id="style1">
      .cls-1 {
        fill: #fff;
        stroke: #000;
        stroke-miterlimit: 10;
      }

      .cls-2 {
        fill: #000;
        font-family: ArialNarrow-BoldItalic, 'Arial Narrow';
        font-size: 30px;
        font-style: italic;
        font-weight: 700;
      }
    </style>
  </defs>
  <g
     id="Calque_20_Image"
     data-name="Calque 20 Image">
    <path
       class="cls-1"
       d="M70.46,247.19c.24.76.44,1.53.72,2.27,1.35,3.55,2.53,7.17,4.12,10.61,3.08,6.66,9.01,8.66,15.73,8.53,6.35-.13,11.09-3.26,13.7-9.15,3.7-8.35,6.52-17.12,6.67-26.21.45-27.98.55-55.97.33-83.96-.08-9.95-1.59-19.89-2.17-29.85-.51-8.7-.72-17.42-.91-26.13-.06-3.04.36-6.09.57-9.29-.85-.23-1.52-.55-2.2-.57-14.32-.41-28.7-.13-42.95-1.35-13.88-1.18-27.73-3.47-40.8-8.87-2.18-.9-4.36-1.85-6.63-2.49C-.98,65.79-3.18,44.13,5.25,33.89c12.01-14.59,26.88-24.6,46.36-25.3,21.96-.79,43.94-.8,65.91-1.3,9.07-.2,18.13-1.01,27.21-1.14,13.79-.2,27.6-.42,41.37.1,7.38.28,14.8,1.65,22.03,3.3,12.73,2.91,25.34,6.38,37.98,9.69,6.6,1.73,12.53,4.79,17.66,9.34,10.47,9.28,11.1,21.21,1.82,31.68-8.49,9.57-19.34,14.44-31.69,16.59-21.8,3.79-43.54,8.02-65.41,11.31-8.54,1.28-17.38.75-26.08.65-8.35-.1-9.22.14-11.63,8.09-1.15,3.8-2.06,7.76-2.41,11.7-.76,8.67-1.52,17.39-1.49,26.08.06,17.1-1.74,34.06-2.73,51.08-1.14,19.61-4.36,38.92-6.59,58.37-.75,6.51-1.36,12.96-3.52,19.2-4.47,12.91-17.48,18.2-29.95,12.12-8.29-4.04-11.88-11.34-13.85-19.73-.64-2.72-.75-5.56-1.1-8.34.44-.07.89-.13,1.33-.2Z"
       id="path2" />
    <text
       class="cls-2"
       transform="translate(63.42 52.99)"
       id="text2"><tspan
         x="0"
         y="0"
         id="tspan2">Inscription</tspan></text>
  </g>
</svg>
